<?xml version="1.0" encoding="UTF-8"?><svg xmlns="http://www.w3.org/2000/svg" xmlns:xlink="http://www.w3.org/1999/xlink" viewBox="0 0 280.67 274.33"><defs><style>.cls-1{mask:url(#mask-1);}.cls-2{filter:url(#luminosity-invert-3);}.cls-3{fill:#231f20;}.cls-4{mask:url(#mask);}.cls-5,.cls-6,.cls-7,.cls-8{fill:none;}.cls-9{mask:url(#mask-2);}.cls-6{stroke-width:.25px;}.cls-6,.cls-7{stroke-miterlimit:10;}.cls-6,.cls-7,.cls-8{stroke:#000;}.cls-7{stroke-width:21px;}.cls-8{stroke-linecap:round;stroke-linejoin:round;stroke-width:16px;}.cls-10{filter:url(#luminosity-invert-2);}.cls-11{filter:url(#luminosity-invert);}.cls-12{clip-path:url(#clippath);}.cls-13{fill:#414042;}.cls-14{mask:url(#mask-3);}.cls-15{filter:url(#luminosity-noclip);}</style><filter id="luminosity-invert" x="-167.36" y="-104.5" width="632.03" height="562.83" color-interpolation-filters="sRGB" filterUnits="userSpaceOnUse"><feColorMatrix result="cm" values="-1 0 0 0 1 0 -1 0 0 1 0 0 -1 0 1 0 0 0 1 0"/></filter><mask id="mask" x="-167.36" y="-104.5" width="632.03" height="562.83" maskUnits="userSpaceOnUse"><g class="cls-11"><g id="Door_Plate"><path d="M260.67,95.5c2.21,0,4,1.79,4,4v154.83c0,2.21-1.79,4-4,4H36.64c-2.21,0-4-1.79-4-4V99.5c0-2.21,1.79-4,4-4h224.03M260.67-104.5H36.64c-27.45,0-54.18,5.42-79.46,16.11-24.32,10.28-46.11,24.96-64.78,43.63-18.67,18.67-33.36,40.47-43.64,64.79-10.69,25.28-16.11,52.02-16.11,79.47v154.83c0,27.45,5.42,54.19,16.11,79.47,10.29,24.32,24.97,46.12,43.64,64.79,18.67,18.67,40.47,33.35,64.78,43.63,25.28,10.69,52.01,16.11,79.46,16.11h224.03c27.45,0,54.18-5.42,79.46-16.11,24.32-10.28,46.11-24.96,64.78-43.63,18.67-18.67,33.36-40.47,43.64-64.79,10.69-25.28,16.11-52.02,16.11-79.47V99.5c0-27.45-5.42-54.19-16.11-79.47-10.29-24.32-24.97-46.12-43.64-64.79-18.67-18.67-40.47-33.35-64.78-43.63-25.28-10.69-52.01-16.11-79.46-16.11h0Z"/></g></g></mask><filter id="luminosity-invert-2" x="-167.36" y="-104.5" width="632.03" height="562.83" color-interpolation-filters="sRGB" filterUnits="userSpaceOnUse"><feColorMatrix result="cm" values="-1 0 0 0 1 0 -1 0 0 1 0 0 -1 0 1 0 0 0 1 0"/></filter><mask id="mask-1" x="-167.36" y="-104.5" width="632.03" height="562.83" maskUnits="userSpaceOnUse"><g class="cls-10"><g id="Door_Plate-2"><path d="M260.67,95.5c2.21,0,4,1.79,4,4v154.83c0,2.21-1.79,4-4,4H36.64c-2.21,0-4-1.79-4-4V99.5c0-2.21,1.79-4,4-4h224.03M260.67-104.5H36.64c-27.45,0-54.18,5.42-79.46,16.11-24.32,10.28-46.11,24.96-64.78,43.63-18.67,18.67-33.36,40.47-43.64,64.79-10.69,25.28-16.11,52.02-16.11,79.47v154.83c0,27.45,5.42,54.19,16.11,79.47,10.29,24.32,24.97,46.12,43.64,64.79,18.67,18.67,40.47,33.35,64.78,43.63,25.28,10.69,52.01,16.11,79.46,16.11h224.03c27.45,0,54.18-5.42,79.46-16.11,24.32-10.28,46.11-24.96,64.78-43.63,18.67-18.67,33.36-40.47,43.64-64.79,10.69-25.28,16.11-52.02,16.11-79.47V99.5c0-27.45-5.42-54.19-16.11-79.47-10.29-24.32-24.97-46.12-43.64-64.79-18.67-18.67-40.47-33.35-64.78-43.63-25.28-10.69-52.01-16.11-79.46-16.11h0Z"/></g></g></mask><filter id="luminosity-invert-3" x="-167.36" y="-104.5" width="632.03" height="562.83" color-interpolation-filters="sRGB" filterUnits="userSpaceOnUse"><feColorMatrix result="cm" values="-1 0 0 0 1 0 -1 0 0 1 0 0 -1 0 1 0 0 0 1 0"/></filter><mask id="mask-2" x="-167.36" y="-104.5" width="632.03" height="562.83" maskUnits="userSpaceOnUse"><g class="cls-2"><g id="Door_Plate-3"><path d="M260.67,95.5c2.21,0,4,1.79,4,4v154.83c0,2.21-1.79,4-4,4H36.64c-2.21,0-4-1.79-4-4V99.5c0-2.21,1.79-4,4-4h224.03M260.67-104.5H36.64c-27.45,0-54.18,5.42-79.46,16.11-24.32,10.28-46.11,24.96-64.78,43.63-18.67,18.67-33.36,40.47-43.64,64.79-10.69,25.28-16.11,52.02-16.11,79.47v154.83c0,27.45,5.42,54.19,16.11,79.47,10.29,24.32,24.97,46.12,43.64,64.79,18.67,18.67,40.47,33.35,64.78,43.63,25.28,10.69,52.01,16.11,79.46,16.11h224.03c27.45,0,54.18-5.42,79.46-16.11,24.32-10.28,46.11-24.96,64.78-43.63,18.67-18.67,33.36-40.47,43.64-64.79,10.69-25.28,16.11-52.02,16.11-79.47V99.5c0-27.45-5.42-54.19-16.11-79.47-10.29-24.32-24.97-46.12-43.64-64.79-18.67-18.67-40.47-33.35-64.78-43.63-25.28-10.69-52.01-16.11-79.46-16.11h0Z"/></g></g></mask><clipPath id="clippath"><path class="cls-5" d="M173.65,236.05c-32.6,0-59.13-26.53-59.13-59.13s26.53-59.13,59.13-59.13,59.13,26.53,59.13,59.13-26.53,59.13-59.13,59.13Z"/></clipPath><filter id="luminosity-noclip" x="48.37" y="103.3" width="52.2" height="118.41" color-interpolation-filters="sRGB" filterUnits="userSpaceOnUse"><feFlood flood-color="#fff" result="bg"/><feBlend in="SourceGraphic" in2="bg"/></filter><mask id="mask-3" x="48.37" y="103.3" width="52.2" height="118.41" maskUnits="userSpaceOnUse"><g class="cls-15"><line class="cls-7" x1="75.02" y1="119.12" x2="75.02" y2="221.71"/></g></mask></defs><g id="Steam"><g class="cls-4"><ellipse class="cls-13" cx="186.62" cy="50.03" rx="15.69" ry="15.06"/></g><g class="cls-1"><ellipse class="cls-13" cx="225.84" cy="22.58" rx="23.52" ry="22.58"/></g><g class="cls-9"><ellipse class="cls-13" cx="221.25" cy="75.08" rx="18.94" ry="18.04"/></g></g><g id="Door"><path id="Door_Plate-4" d="M260.67,95.5c2.21,0,4,1.79,4,4v154.83c0,2.21-1.79,4-4,4H36.64c-2.21,0-4-1.79-4-4V99.5c0-2.21,1.79-4,4-4h224.03M260.67,68.1H36.64l-20,21.17v163.89c0,11.67,8.97,21.17,20,21.17h224.03c11.03,0,20-9.5,20-21.17V89.27l-20-21.17h0Z"/><g id="Knob"><g class="cls-12"><path class="cls-3" d="M211.12,176.91c0-4.42,3.58-8,8-8h14.12c-1.46-10.96-5.86-20.98-12.4-29.25-.16.19-.32.37-.5.55l-5.3,5.3c-1.56,1.56-3.61,2.34-5.66,2.34s-4.1-.78-5.66-2.34c-3.12-3.12-3.12-8.19,0-11.31l5.3-5.3c.12-.12.25-.23.37-.34-7.97-5.91-17.46-9.87-27.77-11.24,0,.15.02.3.02.46v14.67c0,4.42-3.58,8-8,8s-8-3.58-8-8v-14.67c0-.15.01-.3.02-.46-10.61,1.41-20.34,5.57-28.46,11.76l5.19,5.18c3.13,3.12,3.13,8.19.01,11.31-1.56,1.57-3.61,2.35-5.66,2.35s-4.09-.78-5.65-2.34l-5.21-5.2c-6.05,7.9-10.19,17.34-11.72,27.64h14.01c4.42,0,8,3.58,8,8s-3.58,8-8,8h-14.23c1.24,10.53,5.2,20.22,11.16,28.36.3-.47.66-.91,1.07-1.32l5.3-5.3c3.12-3.12,8.19-3.12,11.31,0,3.12,3.12,3.12,8.19,0,11.31l-5.3,5.3c-.51.51-1.07.92-1.66,1.27,8.41,6.82,18.7,11.4,29.97,12.87-.09-.48-.14-.97-.14-1.47v-14.67c0-4.42,3.58-8,8-8s8,3.58,8,8v14.67c0,.5-.05.99-.14,1.47,10.72-1.4,20.56-5.62,28.73-11.9-.79-.38-1.53-.89-2.19-1.54l-5.3-5.29c-3.13-3.12-3.13-8.19-.01-11.31,3.12-3.13,8.18-3.13,11.31-.01l5.3,5.29c.68.68,1.2,1.45,1.59,2.27,6.48-8.24,10.84-18.21,12.29-29.11h-14.12c-4.42,0-8-3.58-8-8ZM173.65,192.93c-8.84,0-16.01-7.17-16.01-16.01s7.17-16.01,16.01-16.01,16.01,7.17,16.01,16.01-7.17,16.01-16.01,16.01ZM114.18,168.03h-.66c-4.42,0-8,3.58-8,8s3.58,8,8,8h.43c-.28-2.33-.43-4.7-.43-7.11,0-3.02.23-5.99.66-8.89ZM210.25,224.62c1.09.53,2.28.8,3.46.8,2.05,0,4.1-.78,5.66-2.35,2.44-2.45,2.96-6.08,1.58-9.04-3.11,3.96-6.71,7.52-10.7,10.59ZM137.22,129.09l-.11-.11c-3.13-3.12-8.19-3.12-11.31.01-3.12,3.13-3.12,8.19.01,11.31l.09.09c3.26-4.25,7.07-8.06,11.32-11.3ZM125.11,212.39c-2,3.1-1.65,7.28,1.07,9.99,1.56,1.56,3.61,2.34,5.66,2.34,1.38,0,2.76-.36,3.99-1.08-4.04-3.27-7.64-7.06-10.71-11.26ZM165.79,236.52c.69,3.71,3.94,6.53,7.86,6.53s7.17-2.81,7.86-6.53c-2.57.34-5.19.53-7.86.53s-5.29-.19-7.86-.53ZM233.78,168.91h-.55c.35,2.62.55,5.29.55,8s-.2,5.38-.55,8h.55c4.42,0,8-3.58,8-8s-3.58-8-8-8ZM220.84,139.67c2.61-3.14,2.45-7.82-.5-10.76-3-3-7.8-3.11-10.94-.34,4.29,3.18,8.13,6.92,11.44,11.1ZM181.63,117.33c-.24-4.2-3.71-7.54-7.98-7.54s-7.74,3.34-7.98,7.54c2.61-.35,5.27-.54,7.98-.54s5.37.2,7.98.54Z"/><path class="cls-6" d="M211.12,176.91c0-4.42,3.58-8,8-8h14.12c-1.46-10.96-5.86-20.98-12.4-29.25-.16.19-.32.37-.5.55l-5.3,5.3c-1.56,1.56-3.61,2.34-5.66,2.34s-4.1-.78-5.66-2.34c-3.12-3.12-3.12-8.19,0-11.31l5.3-5.3c.12-.12.25-.23.37-.34-7.97-5.91-17.46-9.87-27.77-11.24,0,.15.02.3.02.46v14.67c0,4.42-3.58,8-8,8s-8-3.58-8-8v-14.67c0-.15.01-.3.02-.46-10.61,1.41-20.34,5.57-28.46,11.76l5.19,5.18c3.13,3.12,3.13,8.19.01,11.31-1.56,1.57-3.61,2.35-5.66,2.35s-4.09-.78-5.65-2.34l-5.21-5.2c-6.05,7.9-10.19,17.34-11.72,27.64h14.01c4.42,0,8,3.58,8,8s-3.58,8-8,8h-14.23c1.24,10.53,5.2,20.22,11.16,28.36.3-.47.66-.91,1.07-1.32l5.3-5.3c3.12-3.12,8.19-3.12,11.31,0,3.12,3.12,3.12,8.19,0,11.31l-5.3,5.3c-.51.51-1.07.92-1.66,1.27,8.41,6.82,18.7,11.4,29.97,12.87-.09-.48-.14-.97-.14-1.47v-14.67c0-4.42,3.58-8,8-8s8,3.58,8,8v14.67c0,.5-.05.99-.14,1.47,10.72-1.4,20.56-5.62,28.73-11.9-.79-.38-1.53-.89-2.19-1.54l-5.3-5.29c-3.13-3.12-3.13-8.19-.01-11.31,3.12-3.13,8.18-3.13,11.31-.01l5.3,5.29c.68.68,1.2,1.45,1.59,2.27,6.48-8.24,10.84-18.21,12.29-29.11h-14.12c-4.42,0-8-3.58-8-8ZM173.65,192.93c-8.84,0-16.01-7.17-16.01-16.01s7.17-16.01,16.01-16.01,16.01,7.17,16.01,16.01-7.17,16.01-16.01,16.01ZM114.18,168.03h-.66c-4.42,0-8,3.58-8,8s3.58,8,8,8h.43c-.28-2.33-.43-4.7-.43-7.11,0-3.02.23-5.99.66-8.89ZM210.25,224.62c1.09.53,2.28.8,3.46.8,2.05,0,4.1-.78,5.66-2.35,2.44-2.45,2.96-6.08,1.58-9.04-3.11,3.96-6.71,7.52-10.7,10.59ZM137.22,129.09l-.11-.11c-3.13-3.12-8.19-3.12-11.31.01-3.12,3.13-3.12,8.19.01,11.31l.09.09c3.26-4.25,7.07-8.06,11.32-11.3ZM125.11,212.39c-2,3.1-1.65,7.28,1.07,9.99,1.56,1.56,3.61,2.34,5.66,2.34,1.38,0,2.76-.36,3.99-1.08-4.04-3.27-7.64-7.06-10.71-11.26ZM165.79,236.52c.69,3.71,3.94,6.53,7.86,6.53s7.17-2.81,7.86-6.53c-2.57.34-5.19.53-7.86.53s-5.29-.19-7.86-.53ZM233.78,168.91h-.55c.35,2.62.55,5.29.55,8s-.2,5.38-.55,8h.55c4.42,0,8-3.58,8-8s-3.58-8-8-8ZM220.84,139.67c2.61-3.14,2.45-7.82-.5-10.76-3-3-7.8-3.11-10.94-.34,4.29,3.18,8.13,6.92,11.44,11.1ZM181.63,117.33c-.24-4.2-3.71-7.54-7.98-7.54s-7.74,3.34-7.98,7.54c2.61-.35,5.27-.54,7.98-.54s5.37.2,7.98.54Z"/></g></g><g id="Handle"><line class="cls-8" x1="75.02" y1="129.12" x2="75.02" y2="231.71"/><g class="cls-14"><rect class="cls-8" x="56.37" y="111.3" width="36.2" height="36.2"/></g></g></g></svg>