<?xml version="1.0" encoding="UTF-8"?>
<svg xmlns="http://www.w3.org/2000/svg" xmlns:xlink="http://www.w3.org/1999/xlink" viewBox="0 0 327.23 342.47">
  <defs>
    <style>
      .cls-1 {
        mask: url(#mask-1);
      }

      .cls-2 {
        filter: url(#luminosity-invert-3);
      }

      .cls-3 {
        mask: url(#mask);
      }

      .cls-4, .cls-5 {
        fill: none;
        stroke: #000;
        stroke-miterlimit: 10;
        stroke-width: 16px;
      }

      .cls-6 {
        mask: url(#mask-2);
      }

      .cls-5 {
        stroke-linecap: round;
      }

      .cls-7 {
        filter: url(#luminosity-invert-2);
      }

      .cls-8 {
        filter: url(#luminosity-invert);
      }

      .cls-9 {
        fill: #414042;
      }
    </style>
    <filter id="luminosity-invert" x="-152.4" y="-63.64" width="632.03" height="562.83" color-interpolation-filters="sRGB" filterUnits="userSpaceOnUse">
      <feColorMatrix result="cm" values="-1 0 0 0 1 0 -1 0 0 1 0 0 -1 0 1 0 0 0 1 0"/>
    </filter>
    <mask id="mask" x="-152.4" y="-63.64" width="632.03" height="562.83" maskUnits="userSpaceOnUse">
      <g class="cls-8">
        <g id="Door_Plate" data-name="Door Plate">
          <path d="M275.63,136.36c2.21,0,4,1.79,4,4v154.83c0,2.21-1.79,4-4,4H51.6c-2.21,0-4-1.79-4-4v-154.83c0-2.21,1.79-4,4-4h224.03M275.63-63.64H51.6c-27.45,0-54.18,5.42-79.46,16.11-24.32,10.28-46.11,24.96-64.78,43.63-18.67,18.67-33.36,40.47-43.64,64.79-10.69,25.28-16.11,52.02-16.11,79.47v154.83c0,27.45,5.42,54.19,16.11,79.47,10.29,24.32,24.97,46.12,43.64,64.79,18.67,18.67,40.47,33.35,64.78,43.63,25.28,10.69,52.01,16.11,79.46,16.11h224.03c27.45,0,54.18-5.42,79.46-16.11,24.32-10.28,46.11-24.96,64.78-43.63,18.67-18.67,33.36-40.47,43.64-64.79,10.69-25.28,16.11-52.02,16.11-79.47v-154.83c0-27.45-5.42-54.19-16.11-79.47-10.29-24.32-24.97-46.12-43.64-64.79-18.67-18.67-40.47-33.35-64.78-43.63-25.28-10.69-52.01-16.11-79.46-16.11h0Z"/>
        </g>
      </g>
    </mask>
    <filter id="luminosity-invert-2" x="-152.4" y="-63.64" width="632.03" height="562.83" color-interpolation-filters="sRGB" filterUnits="userSpaceOnUse">
      <feColorMatrix result="cm" values="-1 0 0 0 1 0 -1 0 0 1 0 0 -1 0 1 0 0 0 1 0"/>
    </filter>
    <mask id="mask-1" x="-152.4" y="-63.64" width="632.03" height="562.83" maskUnits="userSpaceOnUse">
      <g class="cls-7">
        <g id="Door_Plate-2" data-name="Door Plate">
          <path d="M275.63,136.36c2.21,0,4,1.79,4,4v154.83c0,2.21-1.79,4-4,4H51.6c-2.21,0-4-1.79-4-4v-154.83c0-2.21,1.79-4,4-4h224.03M275.63-63.64H51.6c-27.45,0-54.18,5.42-79.46,16.11-24.32,10.28-46.11,24.96-64.78,43.63-18.67,18.67-33.36,40.47-43.64,64.79-10.69,25.28-16.11,52.02-16.11,79.47v154.83c0,27.45,5.42,54.19,16.11,79.47,10.29,24.32,24.97,46.12,43.64,64.79,18.67,18.67,40.47,33.35,64.78,43.63,25.28,10.69,52.01,16.11,79.46,16.11h224.03c27.45,0,54.18-5.42,79.46-16.11,24.32-10.28,46.11-24.96,64.78-43.63,18.67-18.67,33.36-40.47,43.64-64.79,10.69-25.28,16.11-52.02,16.11-79.47v-154.83c0-27.45-5.42-54.19-16.11-79.47-10.29-24.32-24.97-46.12-43.64-64.79-18.67-18.67-40.47-33.35-64.78-43.63-25.28-10.69-52.01-16.11-79.46-16.11h0Z"/>
        </g>
      </g>
    </mask>
    <filter id="luminosity-invert-3" x="-152.4" y="-63.64" width="632.03" height="562.83" color-interpolation-filters="sRGB" filterUnits="userSpaceOnUse">
      <feColorMatrix result="cm" values="-1 0 0 0 1 0 -1 0 0 1 0 0 -1 0 1 0 0 0 1 0"/>
    </filter>
    <mask id="mask-2" x="-152.4" y="-63.64" width="632.03" height="562.83" maskUnits="userSpaceOnUse">
      <g class="cls-2">
        <g id="Door_Plate-3" data-name="Door Plate">
          <path d="M275.63,136.36c2.21,0,4,1.79,4,4v154.83c0,2.21-1.79,4-4,4H51.6c-2.21,0-4-1.79-4-4v-154.83c0-2.21,1.79-4,4-4h224.03M275.63-63.64H51.6c-27.45,0-54.18,5.42-79.46,16.11-24.32,10.28-46.11,24.96-64.78,43.63-18.67,18.67-33.36,40.47-43.64,64.79-10.69,25.28-16.11,52.02-16.11,79.47v154.83c0,27.45,5.42,54.19,16.11,79.47,10.29,24.32,24.97,46.12,43.64,64.79,18.67,18.67,40.47,33.35,64.78,43.63,25.28,10.69,52.01,16.11,79.46,16.11h224.03c27.45,0,54.18-5.42,79.46-16.11,24.32-10.28,46.11-24.96,64.78-43.63,18.67-18.67,33.36-40.47,43.64-64.79,10.69-25.28,16.11-52.02,16.11-79.47v-154.83c0-27.45-5.42-54.19-16.11-79.47-10.29-24.32-24.97-46.12-43.64-64.79-18.67-18.67-40.47-33.35-64.78-43.63-25.28-10.69-52.01-16.11-79.46-16.11h0Z"/>
        </g>
      </g>
    </mask>
  </defs>
  <g id="Shell">
    <g id="Box">
      <path d="M303.23,109.09c4.42,0,8,3.58,8,8v201.39c0,4.42-3.58,8-8,8H24c-4.42,0-8-3.58-8-8V117.09c0-4.42,3.58-8,8-8h279.23M303.23,93.09H24c-13.23,0-24,10.77-24,24v201.39c0,13.23,10.77,24,24,24h279.23c13.23,0,24-10.77,24-24V117.09c0-13.23-10.77-24-24-24h0Z"/>
    </g>
  </g>
  <g id="Steam">
    <g class="cls-3">
      <ellipse class="cls-9" cx="246.94" cy="86.24" rx="35.2" ry="33.79"/>
    </g>
    <g class="cls-1">
      <ellipse class="cls-9" cx="223.74" cy="45.75" rx="47.66" ry="45.75"/>
    </g>
    <g class="cls-6">
      <ellipse class="cls-9" cx="228.87" cy="121.83" rx="31.85" ry="30.33"/>
    </g>
  </g>
  <g id="Door">
    <g id="Door_Plate-4" data-name="Door Plate">
      <path d="M275.63,136.36c2.21,0,4,1.79,4,4v154.83c0,2.21-1.79,4-4,4H51.6c-2.21,0-4-1.79-4-4v-154.83c0-2.21,1.79-4,4-4h224.03M275.63,120.36H51.6c-11.03,0-20,8.97-20,20v154.83c0,11.03,8.97,20,20,20h224.03c11.03,0,20-8.97,20-20v-154.83c0-11.03-8.97-20-20-20h0Z"/>
    </g>
    <g id="Knob">
      <circle class="cls-4" cx="163.61" cy="217.78" r="60.13"/>
      <circle class="cls-4" cx="163.61" cy="217.78" r="16.01"/>
      <line class="cls-5" x1="103.48" y1="216.89" x2="118.15" y2="216.89"/>
      <line class="cls-5" x1="209.08" y1="217.78" x2="223.74" y2="217.78"/>
      <line class="cls-5" x1="163.61" y1="173.32" x2="163.61" y2="158.65"/>
      <line class="cls-5" x1="163.61" y1="275.91" x2="163.61" y2="261.25"/>
      <line class="cls-5" x1="121.79" y1="257.59" x2="127.09" y2="252.29"/>
      <line class="cls-5" x1="199.35" y1="180.72" x2="204.65" y2="175.43"/>
      <line class="cls-5" x1="203.67" y1="258.28" x2="198.37" y2="252.99"/>
      <line class="cls-5" x1="126.72" y1="180.8" x2="121.42" y2="175.51"/>
    </g>
  </g>
</svg>